<?xml version="1.0" encoding="utf-8"?>
<!-- Generator: Adobe Illustrator 28.0.0, SVG Export Plug-In . SVG Version: 6.00 Build 0)  -->
<svg version="1.0" id="Layer_1" xmlns="http://www.w3.org/2000/svg" xmlns:xlink="http://www.w3.org/1999/xlink" x="0px" y="0px"
	 viewBox="0 0 300 56" style="enable-background:new 0 0 300 56;" xml:space="preserve">
<style type="text/css">
	.st0{fill:#1A1A18;}
	.st1{fill-rule:evenodd;clip-rule:evenodd;fill:#1A1A18;}
	.st2{fill-rule:evenodd;clip-rule:evenodd;fill:#E2000F;}
	.st3{fill-rule:evenodd;clip-rule:evenodd;fill:#9DC978;}
	.st4{fill-rule:evenodd;clip-rule:evenodd;fill:#2097D4;}
	.st5{fill-rule:evenodd;clip-rule:evenodd;fill:#FFCE00;}
</style>
<g>
	<path class="st0" d="M295.4,44.52c0.02,1.12-1.45,1.49-2.85,1.5c0.45-1.5,1.27-2.26,2.06-2.26c0.53,0,0.79,0.27,0.8,0.75
		L295.4,44.52z M295.38,48.77c-0.4,0.19-0.87,0.37-1.56,0.37c-0.69,0-1.15-0.32-1.37-0.9c-0.15-0.42-0.11-1.19-0.08-1.39
		c2.41-0.01,4.29-0.73,4.26-2.4c-0.01-0.8-0.56-1.58-1.85-1.58c-2.52,0-3.8,2.81-3.76,4.68c0.03,1.33,0.65,2.45,2.51,2.45
		c0.77,0,1.44-0.16,2.07-0.43L295.38,48.77z M286.48,49.92l1.4-6.12h1.68l0.17-0.82h-1.68l0.07-0.33c0.16-0.93,0.73-1.89,1.73-1.89
		c0.31,0,0.49,0.03,0.68,0.07l0.3-0.82c-0.17-0.07-0.51-0.13-0.93-0.13c-0.75,0-1.38,0.23-1.85,0.59c-0.67,0.53-1.02,1.32-1.18,2.09
		l-0.1,0.42h-1.11l-0.17,0.82h1.09l-1.38,6.12H286.48z M282.39,41.9c0.47,0,0.87-0.26,0.9-0.73c0.03-0.37-0.21-0.67-0.72-0.67
		c-0.49,0-0.83,0.36-0.86,0.73c-0.03,0.4,0.21,0.67,0.67,0.67H282.39z M281.18,49.92l1.57-6.93h-1.31l-1.55,6.93H281.18z
		 M276.11,49.92l2.22-9.91H277l-2.18,9.91H276.11z M267.07,49.92l0.81-3.64c0.24-1.03,1.2-2.32,2.36-2.32
		c0.05,0,0.13,0.01,0.16,0.01l0.23-1.09c-0.07,0-0.15-0.01-0.24-0.01c-0.89,0-1.65,0.56-2.18,1.42h-0.05
		c0.08-0.56,0.11-0.93,0.12-1.3h-1.15c-0.05,0.51-0.14,1.35-0.34,2.28l-1.03,4.65H267.07z M261.09,43.73c0.77,0,0.94,0.62,0.95,1.33
		c0.02,1.18-0.6,4.12-2.2,4.12c-0.93,0-1.02-0.82-1.03-1.6C258.78,46.22,259.63,43.73,261.09,43.73 M261.29,42.87
		c-2.63,0-3.85,2.95-3.81,4.81c0.02,1.23,0.55,2.35,2.2,2.35c2.7,0,3.73-3.15,3.7-4.9C263.36,44.2,263.06,42.87,261.29,42.87
		 M252.97,49.92l1.4-6.12h1.68l0.17-0.82h-1.68l0.07-0.33c0.16-0.93,0.73-1.89,1.73-1.89c0.31,0,0.49,0.03,0.68,0.07l0.29-0.82
		c-0.17-0.07-0.51-0.13-0.93-0.13c-0.75,0-1.38,0.23-1.85,0.59c-0.66,0.53-1.01,1.32-1.18,2.09l-0.1,0.42h-1.11l-0.17,0.82h1.09
		l-1.38,6.12H252.97z M244.4,46.91c-0.22,0.9-0.98,2.21-1.93,2.21c-0.77,0-0.93-0.69-0.92-1.5c0.01-1.43,0.97-3.88,2.77-3.88
		c0.36,0,0.58,0.04,0.77,0.11L244.4,46.91z M239.8,52.45c0.37,0.19,1.07,0.33,1.74,0.33c0.95,0,1.75-0.23,2.34-0.73
		c0.61-0.49,1.01-1.39,1.33-2.84l1.33-6c-0.48-0.19-1.19-0.34-1.89-0.34c-3.16,0-4.48,3.05-4.43,5.1c0.04,1.3,0.69,2.01,1.72,2.01
		c0.64,0,1.36-0.22,2.09-1.18h0.04l-0.29,1.09c-0.32,1.28-0.86,2.04-2.19,2.04c-0.49,0-1.06-0.14-1.43-0.3L239.8,52.45z
		 M232.34,49.92l0.86-3.85c0.3-1.32,1.27-2.31,2.09-2.31c0.55,0,0.77,0.29,0.78,0.7c0.01,0.36-0.04,0.64-0.11,0.96l-0.99,4.5h1.31
		l0.99-4.51c0.08-0.4,0.15-0.73,0.14-1.13c-0.01-0.73-0.45-1.4-1.54-1.4c-0.89,0-1.65,0.37-2.35,1.22h-0.04l0.13-1.1h-1.15
		c-0.08,0.56-0.19,1.37-0.43,2.38l-0.99,4.55H232.34z M228.49,41.9c0.47,0,0.87-0.26,0.9-0.73c0.03-0.37-0.21-0.67-0.72-0.67
		c-0.49,0-0.83,0.36-0.86,0.73c-0.03,0.4,0.21,0.67,0.67,0.67H228.49z M227.27,49.92l1.57-6.93h-1.31l-1.55,6.93H227.27z
		 M220.97,49.92l0.81-3.64c0.24-1.03,1.2-2.32,2.36-2.32c0.05,0,0.13,0.01,0.16,0.01l0.24-1.09c-0.07,0-0.15-0.01-0.24-0.01
		c-0.89,0-1.65,0.56-2.18,1.42h-0.06c0.08-0.56,0.11-0.93,0.12-1.3h-1.15c-0.05,0.51-0.14,1.35-0.34,2.28l-1.03,4.65H220.97z
		 M215.44,46.39c-0.32,1.37-1.24,2.75-2.14,2.75c-0.62,0-0.85-0.5-0.85-1.38c0.03-1.52,1.07-4.05,3.04-4.05
		c0.2,0,0.38,0.01,0.55,0.04L215.44,46.39z M216.23,49.92c-0.03-0.77,0.11-1.92,0.33-2.85l0.95-3.97c-0.37-0.13-1.01-0.23-1.63-0.23
		c-3.41,0-4.77,3.11-4.74,5.21c0.02,1.25,0.66,1.95,1.68,1.95c0.66,0,1.44-0.26,2.29-1.43h0.04c-0.04,0.54-0.09,0.93-0.1,1.32
		H216.23z M208.25,48.94c-0.34,0.1-0.73,0.17-1.07,0.17c-1.02,0-1.42-0.69-1.44-1.7c-0.03-1.56,1.01-3.62,2.85-3.62
		c0.27,0,0.48,0.06,0.66,0.1l0.33-0.89c-0.18-0.07-0.49-0.12-0.88-0.12c-2.88,0-4.35,2.62-4.31,4.64c0.03,1.35,0.68,2.48,2.45,2.48
		c0.6,0,1.11-0.09,1.44-0.2L208.25,48.94z"/>
	<path class="st1" d="M296.71,32.91L300,15.43h-1.81l-3.29,17.47H296.71z M291.63,26.7c-0.48,2.45-1.78,4.85-3.02,4.85
		c-0.85,0-1.16-0.88-1.11-2.42c0.05-2.65,1.58-7.15,4.27-7.15c0.28,0,0.53,0.03,0.75,0.1L291.63,26.7z M292.64,32.91
		c-0.03-1.36,0.2-3.38,0.53-5.02l1.41-6.97c-0.53-0.23-1.38-0.4-2.24-0.4c-4.7,0-6.66,5.45-6.66,9.17c0,2.22,0.85,3.43,2.29,3.43
		c0.88,0,1.96-0.45,3.14-2.52h0.08c-0.08,0.96-0.15,1.64-0.18,2.32H292.64z M282.29,18.62l-0.38,2.07h-1.48l-0.25,1.39h1.46
		l-1.33,7.04c-0.18,0.99-0.23,1.49-0.23,2c0,1.19,0.73,1.94,2.01,1.94c0.4,0,0.88-0.03,1.31-0.18l0.15-1.41
		c-0.23,0.05-0.43,0.05-0.73,0.05c-0.6,0-0.85-0.33-0.85-0.93c0-0.3,0.05-0.88,0.18-1.54l1.31-6.97h2.29l0.28-1.39h-2.29l0.58-2.85
		L282.29,18.62z M278.47,18.77c0.68,0,1.23-0.45,1.28-1.29c0.05-0.66-0.28-1.19-0.98-1.19c-0.68,0-1.18,0.63-1.23,1.31
		C277.51,18.29,277.81,18.77,278.47,18.77 M276.63,32.91l2.31-12.22h-1.81l-2.31,12.22H276.63z M268.17,26.37
		c0.43-2.3,1.71-4.27,2.91-4.27c0.95,0,1.18,0.96,1.18,2.12c0,1.82-1.01,7.42-3.79,7.42c-0.48,0-0.85-0.2-1.18-0.45L268.17,26.37z
		 M266.06,37.76l0.93-5.05h0.05c0.35,0.25,0.95,0.4,1.48,0.4c3.62,0,5.58-5.35,5.58-9.14c0-1.82-0.48-3.46-2.24-3.46
		c-1.18-0.03-2.34,0.86-3.12,2.17h-0.05l0.25-2h-1.61c-0.15,1.04-0.35,2.58-0.68,4.32l-2.39,12.75H266.06z M257.59,32.4
		c0.35,0.28,1.31,0.66,2.26,0.66c2.26,0,3.97-1.31,3.97-3.94c0-1.24-0.75-2.37-1.71-3.21c-0.6-0.53-1.13-1.11-1.13-2.05
		c0-1.06,0.7-1.89,1.96-1.89c0.5,0,1.03,0.15,1.41,0.38l0.5-1.41c-0.38-0.25-1.08-0.45-1.91-0.45c-2.29,0-3.77,1.62-3.77,3.69
		c0,1.16,0.75,2.22,1.58,2.98c0.7,0.63,1.23,1.29,1.23,2.37c0,1.16-0.73,2.07-1.96,2.07c-0.9,0-1.51-0.33-1.88-0.58L257.59,32.4z
		 M254.27,22c1.06,0,1.28,1.11,1.28,2.37c0,2.05-0.93,7.25-3.14,7.25c-1.28,0-1.38-1.44-1.38-2.83C251.03,26.39,252.26,22,254.27,22
		 M254.57,20.51c-3.64,0-5.38,5.18-5.38,8.46c0,2.17,0.7,4.14,2.94,4.14c3.74,0,5.25-5.53,5.25-8.64
		C257.39,22.83,257.01,20.51,254.57,20.51 M240.93,15.89l-3.22,17.02h1.81l1.51-8h4.7l-1.48,8h1.81l3.22-17.02h-1.83l-1.38,7.35
		h-4.72l1.41-7.35H240.93z M226.48,20.69l1.08,11.49c0.03,0.25,0,0.4-0.1,0.66c-0.38,0.93-1.21,2.05-1.96,2.65
		c-0.63,0.56-1.28,0.93-1.81,1.19l0.73,1.54c0.45-0.15,1.16-0.61,1.88-1.21c1.61-1.39,2.86-3.69,4-6.39l4.07-9.92h-1.86l-2.54,6.77
		c-0.38,1.11-0.75,2.05-1.05,3.11h-0.05c-0.05-1.21-0.08-1.92-0.13-3.06l-0.4-6.82H226.48z M221.93,18.62l-0.38,2.07h-1.48
		l-0.25,1.39h1.46l-1.33,7.04c-0.18,0.99-0.23,1.49-0.23,2c0,1.19,0.73,1.94,2.01,1.94c0.4,0,0.88-0.03,1.31-0.18l0.15-1.41
		c-0.23,0.05-0.43,0.05-0.73,0.05c-0.6,0-0.85-0.33-0.85-0.93c0-0.3,0.05-0.88,0.18-1.54l1.31-6.97h2.29l0.28-1.39h-2.29l0.58-2.85
		L221.93,18.62z M216.28,32.91l3.29-17.47h-1.81l-3.29,17.47H216.28z M211.21,26.7c-0.48,2.45-1.78,4.85-3.02,4.85
		c-0.85,0-1.16-0.88-1.11-2.42c0.05-2.65,1.58-7.15,4.27-7.15c0.28,0,0.53,0.03,0.75,0.1L211.21,26.7z M212.21,32.91
		c-0.02-1.36,0.2-3.38,0.53-5.02l1.41-6.97c-0.53-0.23-1.38-0.4-2.24-0.4c-4.7,0-6.66,5.45-6.66,9.17c0,2.22,0.85,3.43,2.29,3.43
		c0.88,0,1.96-0.45,3.14-2.52h0.08c-0.08,0.96-0.15,1.64-0.18,2.32H212.21z M204.07,18.77c0.68,0,1.23-0.45,1.28-1.29
		c0.05-0.66-0.28-1.19-0.98-1.19c-0.68,0-1.18,0.63-1.23,1.31C203.12,18.29,203.42,18.77,204.07,18.77 M202.24,32.91l2.31-12.22
		h-1.81l-2.31,12.22H202.24z M198.77,31.19c-0.48,0.18-0.98,0.3-1.48,0.3c-1.41,0-1.93-1.21-1.93-3c0-2.75,1.51-6.39,4.02-6.39
		c0.38,0,0.68,0.08,0.9,0.15l0.48-1.54c-0.23-0.13-0.68-0.2-1.21-0.2c-3.97,0-6.06,4.62-6.06,8.18c0,2.37,0.88,4.37,3.32,4.37
		c0.83,0,1.53-0.15,1.99-0.35L198.77,31.19z M191.13,23.39c0,1.99-2.06,2.65-4.02,2.65c0.68-2.65,1.83-3.99,2.94-3.99
		C190.75,22.05,191.13,22.53,191.13,23.39 M191.01,30.89c-0.58,0.33-1.23,0.66-2.19,0.66c-0.95,0-1.58-0.56-1.86-1.57
		c-0.23-0.76-0.13-2.12-0.08-2.47c3.34,0,5.93-1.26,5.93-4.24c0-1.41-0.73-2.75-2.49-2.75c-3.49,0-5.33,4.92-5.33,8.23
		c0,2.35,0.83,4.32,3.39,4.32c1.06,0,1.99-0.28,2.86-0.76L191.01,30.89z M177.84,26.37c0.43-2.3,1.71-4.27,2.91-4.27
		c0.95,0,1.18,0.96,1.18,2.12c0,1.82-1.01,7.42-3.79,7.42c-0.48,0-0.85-0.2-1.18-0.45L177.84,26.37z M175.73,37.76l0.93-5.05h0.05
		c0.35,0.25,0.96,0.4,1.48,0.4c3.62,0,5.58-5.35,5.58-9.14c0-1.82-0.48-3.46-2.24-3.46c-1.18-0.03-2.34,0.86-3.12,2.17h-0.05l0.25-2
		h-1.61c-0.15,1.04-0.35,2.58-0.68,4.32l-2.39,12.75H175.73z M167.26,32.4c0.35,0.28,1.31,0.66,2.26,0.66
		c2.26,0,3.97-1.31,3.97-3.94c0-1.24-0.75-2.37-1.71-3.21c-0.6-0.53-1.13-1.11-1.13-2.05c0-1.06,0.7-1.89,1.96-1.89
		c0.5,0,1.03,0.15,1.41,0.38l0.5-1.41c-0.38-0.25-1.08-0.45-1.91-0.45c-2.29,0-3.77,1.62-3.77,3.69c0,1.16,0.75,2.22,1.58,2.98
		c0.7,0.63,1.23,1.29,1.23,2.37c0,1.16-0.73,2.07-1.96,2.07c-0.9,0-1.51-0.33-1.88-0.58L167.26,32.4z M163.29,32.91l1.18-6.41
		c0.35-1.82,1.68-4.09,3.29-4.09c0.08,0,0.2,0.03,0.25,0.03l0.35-1.92c-0.1-0.03-0.23-0.03-0.33-0.03c-1.23,0-2.29,0.99-3.04,2.5
		h-0.08c0.13-1.01,0.15-1.67,0.2-2.3h-1.58c-0.08,0.91-0.23,2.37-0.53,4.01l-1.53,8.21H163.29z M159.55,23.39
		c0,1.99-2.06,2.65-4.02,2.65c0.68-2.65,1.83-3.99,2.94-3.99C159.17,22.05,159.55,22.53,159.55,23.39 M159.42,30.89
		c-0.58,0.33-1.23,0.66-2.19,0.66c-0.96,0-1.58-0.56-1.86-1.57c-0.23-0.76-0.13-2.12-0.08-2.47c3.34,0,5.93-1.26,5.93-4.24
		c0-1.41-0.73-2.75-2.49-2.75c-3.49,0-5.33,4.92-5.33,8.23c0,2.35,0.83,4.32,3.39,4.32c1.06,0,1.99-0.28,2.86-0.76L159.42,30.89z
		 M146.26,26.37c0.43-2.3,1.71-4.27,2.91-4.27c0.95,0,1.18,0.96,1.18,2.12c0,1.82-1.01,7.42-3.79,7.42c-0.48,0-0.85-0.2-1.18-0.45
		L146.26,26.37z M144.15,37.76l0.93-5.05h0.05c0.35,0.25,0.95,0.4,1.48,0.4c3.62,0,5.58-5.35,5.58-9.14c0-1.82-0.48-3.46-2.24-3.46
		c-1.18-0.03-2.34,0.86-3.12,2.17h-0.05l0.25-2h-1.61c-0.15,1.04-0.35,2.58-0.68,4.32l-2.39,12.75H144.15z M141.03,20.69l-1.31,7.05
		c-0.4,2.17-1.66,3.81-2.86,3.81c-0.75,0-1.06-0.5-1.06-1.26c0-0.63,0.08-1.24,0.23-1.92l1.43-7.68h-1.81l-1.48,7.98
		c-0.13,0.66-0.2,1.26-0.2,1.94c0,1.31,0.6,2.5,2.04,2.5c1.18,0,2.31-0.61,3.27-2.12h0.05l-0.15,1.92h1.61
		c0.1-0.98,0.23-2.4,0.55-4.19l1.51-8.03H141.03z M124.42,32.38c0.35,0.3,1.43,0.68,2.69,0.68c3.19,0,5.05-2.22,5.05-5.3
		c0-1.64-0.88-3.13-2.06-4.24c-1.13-1.06-1.78-2.02-1.78-3.23c0.03-1.64,1.08-2.88,2.76-2.88c0.8,0,1.36,0.18,1.86,0.45l0.55-1.57
		c-0.38-0.28-1.21-0.56-2.24-0.56c-2.89,0-4.8,2.1-4.8,4.75c0,1.62,0.85,2.98,2.09,4.22c1.13,1.11,1.76,2.07,1.76,3.41
		c0,1.79-1.06,3.31-3.09,3.28c-0.9,0-1.76-0.28-2.26-0.63L124.42,32.38z"/>
	<path class="st2" d="M114.1,26.65l1.36-3.79c0.35-0.93,0.9-2.8,1.31-4.09h0.05c-0.03,1.29-0.13,3.08-0.15,4.12l-0.08,3.76H114.1z
		 M116.49,28.97l-0.05,3.94h3.04l-0.18-17.02h-3.65l-6.86,17.02h3.06l1.48-3.94H116.49z M107.94,29.93
		c-0.4,0.18-1.11,0.28-1.71,0.28c-1.71,0-2.29-1.46-2.29-3.66c0-2.73,0.8-5.05,1.96-6.52c0.7-0.88,1.68-1.41,2.54-1.41
		c0.68,0,1.13,0.08,1.46,0.23l0.88-2.75c-0.2-0.15-1.08-0.35-1.91-0.35c-1.76,0-3.59,0.63-5.05,2.15c-1.96,1.99-3.22,5.25-3.22,9.37
		c0,1.97,0.63,5.81,4.9,5.81c1.03,0,1.78-0.1,2.34-0.33L107.94,29.93z M97.08,15.89l-3.24,17.02h3.14l3.24-17.02H97.08z
		 M87.56,18.41c0.15-0.05,0.4-0.05,0.7-0.05c1.61,0,2.11,1.67,2.11,3.31c0,2.55-0.55,4.67-1.33,6.29c-0.73,1.51-1.91,2.35-2.94,2.35
		c-0.3,0-0.6-0.05-0.83-0.08L87.56,18.41z M81.81,32.65c0.78,0.2,2.04,0.33,3.04,0.33c2.21,0,3.72-0.45,5.1-1.62
		c1.73-1.41,3.64-5.08,3.64-9.39c0-1.69-0.3-3.23-1.23-4.42c-0.83-1.04-2.16-1.74-4.2-1.74c-1.23,0-2.39,0.13-3.24,0.3L81.81,32.65z
		 M80.85,22.73h-3.77l0.83-4.07h3.89l0.55-2.78h-7.09l-3.24,17.02h7.39l0.55-2.8h-4.3l0.93-4.72h3.74L80.85,22.73z M69.58,32.91
		l2.21-17.02h-3.32l-3.24,8.08c-0.5,1.29-1.16,3.03-1.48,4.24h-0.08c0.05-1.21,0-2.98-0.03-4.24l-0.33-8.08H60l-4.3,17.02h2.71
		l1.56-6.67c0.33-1.39,0.73-3.23,1.16-5.45h0.05c-0.05,2.22,0.02,4.12,0.08,5.28l0.28,6.57h2.27l2.76-6.49
		c0.5-1.16,1.28-3.13,1.98-5.35h0.13c-0.4,2.22-0.73,4.07-0.93,5.45l-0.9,6.67H69.58z"/>
	<path class="st3" d="M29.39,6.74c-10.21,0-18.48,8.27-18.48,18.48v0h7.68v0c0-5.96,4.83-10.79,10.79-10.79h0L29.39,6.74L29.39,6.74
		z"/>
	<path class="st1" d="M12.37,3.74c-2.46,0-4.46,2-4.46,4.46c0,2.46,2,4.46,4.46,4.46c2.46,0,4.46-2,4.46-4.46
		C16.83,5.73,14.84,3.74,12.37,3.74"/>
	<path class="st4" d="M21.71,43.71c-10.21,0-18.48-8.27-18.48-18.48v0h7.68v0c0,5.96,4.83,10.79,10.79,10.79h0L21.71,43.71
		L21.71,43.71z"/>
	<path class="st1" d="M4.71,46.71c-2.46,0-4.46-2-4.46-4.46c0-2.46,2-4.46,4.46-4.46c2.46,0,4.46,2,4.46,4.46
		C9.17,44.71,7.17,46.71,4.71,46.71"/>
	<path class="st2" d="M29.4,14.43c10.21,0,18.48,8.27,18.48,18.48v0h-7.68v0c0-5.96-4.83-10.79-10.79-10.79h0L29.4,14.43L29.4,14.43
		z"/>
	<path class="st1" d="M46.42,11.42c2.46,0,4.46,2,4.46,4.46c0,2.46-2,4.46-4.46,4.46c-2.46,0-4.46-2-4.46-4.46
		C41.96,13.42,43.96,11.42,46.42,11.42"/>
	<path class="st5" d="M21.72,51.39c10.21,0,18.48-8.27,18.48-18.48v0h-7.68v0c0,5.96-4.83,10.79-10.79,10.79h0L21.72,51.39
		L21.72,51.39z"/>
	<path class="st1" d="M38.75,54.43c2.46,0,4.46-2,4.46-4.46c0-2.46-2-4.46-4.46-4.46c-2.46,0-4.46,2-4.46,4.46
		C34.29,52.44,36.29,54.43,38.75,54.43"/>
</g>
</svg>
